<svg width="88" height="88" viewBox="0 0 88 88" fill="none" xmlns="http://www.w3.org/2000/svg">
<path d="M79.4804 4.68799C77.6445 4.68799 76.1484 6.18409 76.1484 8.01999V28.258C76.418 28.1838 76.6992 28.1447 76.9844 28.1447C77.6094 28.1447 78.2149 28.3283 78.7305 28.6799L82.8125 31.4299V8.01987C82.8125 6.18397 81.3163 4.68799 79.4804 4.68799Z" fill="black"/>
<path d="M49.9614 48.777C47.2075 48.777 44.9614 51.0192 44.9614 53.777C44.9614 56.5348 47.2036 58.777 49.9614 58.777C52.7192 58.777 54.9614 56.5348 54.9614 53.777C54.9614 51.0192 52.7192 48.777 49.9614 48.777Z" fill="black"/>
<path d="M24.6255 33.438C27.3794 33.438 29.6255 31.1958 29.6255 28.438C29.6255 25.6802 27.3794 23.438 24.6255 23.438C21.8677 23.438 19.6255 25.6802 19.6255 28.438C19.6216 31.1958 21.8677 33.438 24.6255 33.438Z" fill="black"/>
<path d="M79.4805 0H8.0195C3.5976 0 0 3.5977 0 8.0195V85.9375C0 86.5156 0.32031 87.0469 0.82812 87.3164C1.33593 87.5859 1.95312 87.5586 2.43752 87.2305L10.4883 81.793L18.5195 87.2305C19.0508 87.5898 19.7383 87.5898 20.2695 87.2305L28.3203 81.793L36.3789 87.2305C36.6406 87.4102 36.9492 87.5 37.2539 87.5C37.5586 87.5 37.8633 87.4101 38.1289 87.2305L46.1719 81.793L54.2383 87.2305C54.7618 87.5898 55.4571 87.5859 55.9844 87.2344L64.0664 81.7891L72.1523 87.2344C72.6328 87.5586 73.2461 87.5859 73.7617 87.3164C74.2656 87.0469 74.5859 86.5156 74.5859 85.9375V34.7695L76.9843 33.1562L85.0663 38.6015C85.5429 38.9218 86.1561 38.957 86.6757 38.6835C87.1836 38.4101 87.5 37.8788 87.5 37.3007V8.01973C87.5 3.59783 83.9023 0 79.4805 0ZM24.6255 20.312C29.106 20.312 32.7505 23.9604 32.7505 28.437C32.7505 32.9175 29.106 36.562 24.6255 36.562C20.145 36.562 16.5005 32.9175 16.5005 28.437C16.4966 23.9604 20.145 20.312 24.6255 20.312ZM49.9615 61.902C45.481 61.902 41.8365 58.2536 41.8365 53.777C41.8365 49.2965 45.481 45.652 49.9615 45.652C54.442 45.652 58.0865 49.2965 58.0865 53.777C58.0865 58.2536 54.442 61.902 49.9615 61.902ZM57.6295 22.98L19.1645 61.445C18.8598 61.7497 18.4614 61.902 18.059 61.902C17.6606 61.902 17.2582 61.7497 16.9535 61.445C16.3441 60.8356 16.3441 59.8473 16.9535 59.2341L55.4225 20.7691C56.0319 20.1597 57.0202 20.1597 57.6334 20.7691C58.2389 21.3785 58.2389 22.3707 57.6295 22.98ZM84.3755 34.367L77.856 29.9764C77.5943 29.8006 77.2896 29.7108 76.9849 29.7108C76.6802 29.7108 76.3755 29.8006 76.1138 29.9764L74.5865 31.0037V8.0197C74.5865 5.3205 76.7818 3.1252 79.481 3.1252C82.1802 3.1252 84.3755 5.3205 84.3755 8.0197L84.3755 34.367Z" fill="black"/>
</svg>
